<svg width="177" height="291" viewBox="0 0 177 291" fill="none" xmlns="http://www.w3.org/2000/svg">
<g clip-path="url(#clip0_1_1502)">
<path d="M106.5 291C143.606 291 173.686 288.197 173.686 284.74C173.686 281.283 143.606 278.48 106.5 278.48C69.3949 278.48 39.3149 281.283 39.3149 284.74C39.3149 288.197 69.3949 291 106.5 291Z" fill="black" fill-opacity="0.1"/>
<path d="M141.61 30.4147C141.61 30.4147 137.901 34.3696 139.453 35.6519C141.006 36.9342 147.203 41.0476 148.209 38.3389L141.61 30.4147Z" fill="#EF7D78"/>
<path d="M160.48 39.0593C160.48 39.0593 160.48 30.7461 149.237 24.3922C149.237 24.3922 144.672 19.4864 141.847 18.8093C139.022 18.1321 133.027 18.9317 133.372 20.9272C133.717 22.9227 137.369 23.1532 140.029 23.2468C142.688 23.3405 143.228 26.1932 143.228 26.1932C143.228 26.1932 139.525 29.8384 140.029 31.6826C140.197 32.2232 140.495 32.7144 140.895 33.1136C141.296 33.5129 141.788 33.808 142.329 33.9734C142.329 33.9734 142.602 35.7239 145.585 36.4083C145.996 37.5083 146.753 38.4441 147.742 39.0737C148.275 39.3488 148.858 39.513 149.456 39.5563C150.054 39.5997 150.654 39.5213 151.221 39.3258C151.221 39.3258 151.868 46.8395 160.48 39.0593Z" fill="#FDA092"/>
<path d="M142.652 33.2747C143.78 30.8221 145.511 28.6975 147.684 27.101" stroke="#D04949" stroke-width="1.32" stroke-linecap="round" stroke-linejoin="round"/>
<path d="M145.765 35.6519C146.905 33.4518 148.579 31.5741 150.632 30.1914" stroke="#D04949" stroke-width="1.32" stroke-linecap="round" stroke-linejoin="round"/>
<path d="M150.632 36.4587C150.632 36.4587 152.623 37.8347 154.399 37.3376" stroke="#D04949" stroke-width="1.32" stroke-linecap="round" stroke-linejoin="round"/>
<path d="M152.515 37.4457L151.415 39.0593" stroke="#D04949" stroke-width="1.32" stroke-linecap="round" stroke-linejoin="round"/>
<path d="M158.324 40.7307L160.48 38.339C160.48 38.339 179.538 70.6195 176.72 78.5581C174.843 83.8386 153.069 82.9309 153.069 82.9309L150.711 62.0397L160.214 63.0482L151.962 41.2998L158.324 40.7307Z" fill="#FDA092"/>
<path d="M156.778 62.7096L164.183 82.722C160.482 82.9823 156.77 83.052 153.062 82.9309L150.704 62.0397L156.778 62.7096Z" fill="#EF7D78"/>
<path d="M85.7611 263.056C82.6341 270.087 80.3121 277.464 80.1539 285.813L109.527 285.957C109.656 278.083 106.321 271.038 101.159 264.98L85.7611 263.056Z" fill="#3D6A9F"/>
<path d="M108.837 279.452L80.65 279.755C80.359 281.762 80.1933 283.785 80.1539 285.813L109.527 285.957C109.557 283.775 109.316 281.597 108.808 279.474L108.837 279.452Z" fill="#D4EFF9"/>
<path d="M109.527 197.033L100.944 266.737C95.6959 269.043 90.3691 268.675 84.9775 266.233L89.3483 197.198L109.527 197.033Z" fill="#FDA092"/>
<path d="M108.233 207.579C101.671 206.987 95.1991 205.638 88.9457 203.559L89.3482 197.198L109.527 197.033L108.233 207.579Z" fill="#EF7D78"/>
<path d="M118.34 264.98L133.372 266.665C142.652 268.193 148.274 272.429 151.66 282.413L113.646 282.111C113.445 276.52 115.084 269.497 118.34 264.98Z" fill="#3D6A9F"/>
<path d="M113.826 277.752L150.409 279.193C150.855 280.187 151.272 281.253 151.66 282.391L113.646 282.11C113.597 280.655 113.657 279.198 113.826 277.752Z" fill="#D4EFF9"/>
<path d="M139.525 193.366L133.429 267.566C128.206 268.732 122.766 268.468 117.679 266.802L119.397 197.198L139.525 193.366Z" fill="#FDA092"/>
<path d="M138.49 205.555C132.124 206.969 125.636 207.758 119.117 207.911L119.39 197.198L139.525 193.366L138.526 205.613L138.49 205.555Z" fill="#EF7D78"/>
<path d="M87.3355 146.908L82.4902 197.501C93.5585 200.436 105.017 201.615 116.45 200.995L116.716 198.985C125.917 200.736 135.298 201.96 144.752 201.06L143.17 146.311C126.032 149.495 106.716 148.256 87.3211 146.937L87.3355 146.908Z" fill="#E4B586"/>
<path d="M143.271 149.142C130.683 152.095 107.327 156.194 86.8035 152.477L87.3355 146.908C106.745 148.227 126.047 149.466 143.184 146.282L143.271 149.163V149.142Z" fill="#CF9168"/>
<path d="M116.744 198.992L119.62 170.249L128.555 169.139C124.652 170.703 124.343 195.7 131.912 201.103L130.626 201.017C127.125 200.649 127.355 200.678 123.631 200.174L116.73 198.992H116.744Z" fill="#CF9168"/>
<path d="M103.682 160.949L105.192 160.985C106.16 159.762 107.209 158.607 108.334 157.527C106.885 158.401 105.508 159.389 104.214 160.48L103.682 160.949Z" fill="#B0AB1E"/>
<path d="M112.654 160.833L111.597 158.924L111.245 158.341L111.044 157.988L110.713 157.469L110.116 156.482L109.29 155.243L108.988 154.768L108.83 154.544C108.219 153.644 107.6 152.787 106.996 151.98L106.925 151.879L106.644 151.519L105.631 150.208L105.156 149.631L104.905 149.314L104.624 148.99L104.193 148.464L103.215 147.348L102.985 147.088L102.82 146.901L102.561 146.627L101.224 145.187L100.606 144.574L100.347 144.3L100.074 144.048C99.4412 143.414 98.8661 142.881 98.3773 142.442L96.6016 140.936C102.719 144.956 107.176 150.798 110.102 155.639C111.119 157.313 112.048 159.04 112.884 160.812H112.654V160.833Z" fill="#B0AB1E"/>
<path d="M82.5334 157.851L81.0956 159.573L82.8713 157.412L83.1301 157.123L84.0718 156.072L84.5103 155.611L84.7403 155.358L84.9919 155.106L85.3945 154.681L86.2859 153.802L86.4944 153.594L86.6453 153.449L86.8826 153.241L88.0903 152.117L88.651 151.641L88.881 151.432L89.1254 151.238C89.7005 150.748 90.2181 150.337 90.6494 150.006L92.231 148.875C88.5246 150.95 85.2458 153.713 82.5694 157.015L82.4759 157.837L82.5334 157.851Z" fill="#B0AB1E"/>
<path d="M114.113 157.138V157.346H112.891L114.12 157.116L114.113 157.138Z" fill="#B0AB1E"/>
<path d="M114.156 155.048H114.027L114.156 154.984V155.048Z" fill="#B0AB1E"/>
<path d="M136.369 158.787H136.549L136.592 156.302L136.635 155.661V155.272L136.686 154.696L136.75 153.601L136.894 152.196L136.937 151.67L136.973 151.404C137.081 150.381 137.218 149.401 137.369 148.457V148.342L137.448 147.924L137.714 146.382L137.858 145.662L137.929 145.287L138.016 144.898L138.152 144.272L138.476 142.91L138.548 142.6L138.605 142.37L138.706 142.031L139.195 140.259L139.439 139.481L139.532 139.143L139.647 138.818C139.906 138.012 140.151 137.32 140.366 136.751L141.186 134.741C137.836 140.648 136.686 147.485 136.377 152.837C136.266 154.814 136.266 156.796 136.377 158.773L136.369 158.787Z" fill="#B0AB1E"/>
<path d="M141.208 157.404L140.489 157.577C130.561 159.789 114.2 158.982 96.6376 157.577L95.8109 157.512V63.8622L138.763 62.5583L140.381 125.196L140.819 142.147L141.208 157.404Z" fill="#EAEAEA"/>
<path d="M141.207 124.929L140.812 142.175L140.46 157.577C130.532 159.789 114.171 158.982 96.6088 157.577L105.02 87.2314C105.02 87.2314 116.191 133.041 140.352 125.225L141.207 124.929Z" fill="#DFDFDF"/>
<path d="M106.357 49.5626C106.357 49.5626 108.003 57.7318 104.387 60.1883C104.387 60.1883 109.728 73.9261 120.497 72.0027C131.266 70.0792 126.967 60.8223 126.967 60.8223L123.078 58.6611C123.078 58.6611 122.431 57.4437 122.165 53.0781L106.357 49.5626Z" fill="#FDA092"/>
<path d="M106.716 54.4108C110.124 58.517 117.348 64.9357 126.952 60.8007L123.099 58.6395C123.099 58.6395 122.452 57.422 122.186 53.0565L106.371 49.5482C106.66 51.152 106.776 52.7822 106.716 54.4108Z" fill="#EF7D78"/>
<path d="M133.357 32.9073C136.434 32.4607 139.216 34.0887 139.576 36.5092C139.935 38.9297 137.728 41.3214 134.659 41.7752C131.589 42.2291 128.807 40.5938 128.448 38.1373C128.088 35.6808 130.288 33.3611 133.357 32.9073Z" fill="#EF7D78"/>
<path d="M111.633 12.369C128.009 10.2078 131.273 17.9087 133.293 29.6582C135.313 41.4077 131.898 53.431 122.093 55.0879C111.353 56.9321 102.453 49.1087 100.433 37.3592C98.4132 25.6097 101.77 13.6873 111.633 12.369Z" fill="#FDA092"/>
<path d="M97.6728 42.863C97.6728 42.863 91.7708 30.6741 94.2725 21.3451C96.7742 12.0161 103.956 0.965342 107.859 1.10222C111.763 1.23909 109.836 4.83382 109.836 4.83382C109.836 4.83382 115.652 -0.749176 120.885 0.0864716C126.118 0.922119 123.89 3.59475 123.89 3.59475C123.89 3.59475 130.36 1.91625 132.682 4.74016C135.004 7.56408 131.869 12.0953 131.869 12.0953C131.869 12.0953 135.392 11.447 136.837 14.487C138.354 17.6855 134.68 21.6909 134.68 21.6909C135.089 27.3507 134.775 33.0398 133.746 38.6199C133.415 31.9275 133.171 27.5548 130.798 21.3307C122.991 20.4734 114.803 21.1506 105.818 22.4977L105.221 32.3309C104.092 36.5092 102.755 39.3403 103.697 42.8558L97.6728 42.863Z" fill="#573333"/>
<path d="M100.081 8.37811C102.806 4.0558 105.789 1.03018 107.859 1.10222C111.763 1.24629 109.836 4.83382 109.836 4.83382C109.836 4.83382 115.652 -0.749176 120.885 0.0864716C126.118 0.92212 123.89 3.59475 123.89 3.59475C123.89 3.59475 130.36 1.91625 132.682 4.74017C135.004 7.56408 131.869 12.0953 131.869 12.0953C131.869 12.0953 135.392 11.447 136.837 14.487C137.097 15.0505 137.223 15.6672 137.203 16.288C136.534 15.2341 135.572 14.3997 134.435 13.8877C133.298 13.3756 132.036 13.2083 130.805 13.4064C132.107 1.11662 123.106 5.7343 123.106 5.7343C121.058 -2.651 109.491 7.42 109.491 7.42C108.362 2.96802 103.668 5.58302 100.081 8.41413V8.37811Z" fill="#784E47"/>
<path d="M105.559 17.5414L104.25 17.3037L99.7646 42.6325L101.073 42.863L105.559 17.5414Z" fill="#E43B3F"/>
<path d="M117.708 17.2821C117.577 16.7768 117.284 16.3287 116.874 16.007C116.468 15.6724 115.961 15.4868 115.436 15.4811H105.063C104.843 15.474 104.624 15.5177 104.423 15.6089C104.222 15.7001 104.045 15.8363 103.905 16.007C103.775 16.1891 103.687 16.3983 103.649 16.619C103.61 16.8398 103.622 17.0664 103.683 17.2821C103.898 18.1897 104.179 19.3496 104.473 20.567C104.998 22.4991 106.122 24.2139 107.683 25.4636C109.244 26.7133 111.161 27.433 113.157 27.5187C117.032 27.5187 119.426 24.4067 118.498 20.567C118.204 19.3496 117.931 18.1897 117.708 17.2821Z" fill="#E43B3F"/>
<path d="M116.974 18.9461C116.857 18.5121 116.605 18.1266 116.255 17.8456C115.905 17.5646 115.474 17.4025 115.026 17.3829H106.4C106.206 17.3722 106.013 17.409 105.837 17.49C105.661 17.5709 105.507 17.6937 105.389 17.8476C105.27 18.0015 105.191 18.182 105.158 18.3734C105.125 18.5648 105.139 18.7614 105.199 18.9461C105.307 19.3784 105.429 19.8826 105.552 20.3869C105.99 22.0123 106.933 23.4554 108.245 24.5072C109.557 25.559 111.169 26.1647 112.848 26.2365C116.09 26.2365 118.096 23.6287 117.327 20.4085C117.24 19.8826 117.082 19.3784 116.974 18.9461Z" fill="#214E78"/>
<path d="M115.738 18.6292C115.693 18.4699 115.6 18.3287 115.471 18.2254C115.342 18.122 115.184 18.0617 115.019 18.0529H109.987C109.915 18.048 109.844 18.061 109.778 18.0905C109.712 18.12 109.655 18.1652 109.611 18.2221C109.567 18.2791 109.538 18.3459 109.525 18.4169C109.513 18.4879 109.519 18.5608 109.541 18.6292V18.73C109.586 18.8893 109.679 19.0305 109.808 19.1338C109.937 19.2372 110.095 19.2975 110.26 19.3063H115.328C115.4 19.3112 115.472 19.2982 115.537 19.2687C115.603 19.2392 115.66 19.194 115.704 19.1371C115.748 19.0801 115.778 19.0133 115.79 18.9423C115.802 18.8713 115.796 18.7984 115.774 18.73L115.738 18.6292Z" fill="#CADFF4"/>
<path d="M134.141 17.2821C134.007 16.7781 133.715 16.3309 133.307 16.007C132.902 15.6724 132.394 15.4868 131.869 15.4811H121.496C121.276 15.474 121.057 15.5177 120.856 15.6089C120.656 15.7001 120.478 15.8363 120.339 16.007C120.208 16.1891 120.121 16.3983 120.082 16.619C120.043 16.8398 120.055 17.0664 120.116 17.2821C120.331 18.1897 120.612 19.3496 120.907 20.567C121.431 22.4991 122.555 24.2139 124.116 25.4636C125.677 26.7133 127.594 27.433 129.591 27.5187C133.465 27.5187 135.852 24.4067 134.932 20.567C134.637 19.3496 134.364 18.1897 134.141 17.2821Z" fill="#E43B3F"/>
<path d="M133.408 18.9461C133.291 18.5121 133.039 18.1266 132.688 17.8456C132.338 17.5646 131.908 17.4025 131.46 17.3829H122.833C122.64 17.3722 122.446 17.409 122.27 17.49C122.094 17.5709 121.94 17.6937 121.822 17.8476C121.704 18.0015 121.625 18.182 121.592 18.3734C121.559 18.5648 121.573 18.7614 121.633 18.9461C121.74 19.3784 121.855 19.8826 121.985 20.3869C122.423 22.0123 123.367 23.4554 124.679 24.5072C125.991 25.559 127.603 26.1647 129.281 26.2365C132.531 26.2365 134.536 23.6287 133.76 20.4085C133.638 19.8826 133.516 19.3784 133.408 18.9461Z" fill="#214E78"/>
<path d="M132.171 18.6292C132.127 18.47 132.033 18.3288 131.904 18.2254C131.775 18.1221 131.617 18.0617 131.452 18.0529H126.37C126.299 18.0498 126.228 18.0639 126.163 18.0939C126.099 18.1239 126.042 18.1691 125.998 18.2255C125.955 18.282 125.925 18.3481 125.912 18.4183C125.899 18.4886 125.904 18.5609 125.924 18.6292C125.928 18.6628 125.928 18.6965 125.924 18.7301C125.969 18.8893 126.063 19.0305 126.191 19.1339C126.32 19.2372 126.478 19.2975 126.643 19.3064H131.675C131.747 19.3112 131.819 19.2983 131.884 19.2688C131.95 19.2393 132.007 19.194 132.051 19.1371C132.095 19.0802 132.125 19.0133 132.137 18.9423C132.149 18.8713 132.144 18.7985 132.121 18.7301L132.171 18.6292Z" fill="#CADFF4"/>
<path d="M121.719 15.7981C119.785 15.1965 117.715 15.1965 115.781 15.7981V17.383C117.706 16.7232 119.794 16.7232 121.719 17.383V15.7981Z" fill="#E43B3F"/>
<path d="M100.915 34.593C104.243 34.9387 106.731 37.3304 106.465 39.931C106.199 42.5316 103.273 44.3614 99.9444 44.0228C96.6161 43.6842 94.1288 41.2853 94.3947 38.6848C94.6607 36.0842 97.5865 34.2544 100.915 34.593Z" fill="#FDA092"/>
<path d="M116.996 28.3977C112.446 27.2451 109.714 29.1181 108.427 32.3598C110.85 30.7206 113.79 30.0309 116.687 30.422L116.996 28.3977Z" fill="#573333"/>
<path d="M125.73 28.023C129.267 27.1225 132.2 27.3962 132.459 31.2071C130.712 29.2836 127.865 29.3845 125.436 30.393L125.73 28.023Z" fill="#573333"/>
<path d="M124.975 31.2072C123.797 35.7168 126.413 39.1314 126.557 40.1327C126.701 41.1341 125.709 42.3587 124.774 43.1079" stroke="#D04949" stroke-width="1.27" stroke-linecap="round" stroke-linejoin="round"/>
<path d="M113.898 37.8058C114.469 37.8058 114.933 37.093 114.933 36.2138C114.933 35.3345 114.469 34.6217 113.898 34.6217C113.326 34.6217 112.862 35.3345 112.862 36.2138C112.862 37.093 113.326 37.8058 113.898 37.8058Z" fill="#30385B"/>
<path d="M128.577 34.6289C129.152 34.6289 129.619 35.3493 129.619 36.2138C129.619 37.0782 129.152 37.8058 128.577 37.8058C128.002 37.8058 127.542 37.0854 127.542 36.2138C127.542 35.3421 128.023 34.6289 128.577 34.6289Z" fill="#30385B"/>
<path d="M124.673 45.4924C121.87 45.7373 118.779 44.6207 115.594 43.1079C115.594 43.1079 114.48 48.9719 118.47 50.1317C124.328 51.8462 124.673 45.4924 124.673 45.4924Z" fill="white"/>
<path d="M105.738 57.566C113.581 78.5365 115.414 115.406 114.034 160.754C103.433 161.579 92.7682 160.605 82.4902 157.873C86.6237 126.529 87.5583 95.552 87.1845 66.3836C92.6119 62.5655 96.0841 60.5412 105.738 57.6309V57.566Z" fill="#B0AB1E"/>
<path d="M111.382 81.2236C111.382 81.2236 111.31 67.0896 105.983 56.9105C105.983 56.9105 99.8725 58.0992 97.5937 60.7646L98.9236 75.691C98.9236 75.691 106.953 75.1507 111.382 81.2236Z" fill="#DFD153"/>
<path d="M102.144 160.905C101.209 159.619 100.438 158.22 99.8509 156.742L101.145 155.949L102.439 155.229L101.001 155.704C100.541 155.877 100.095 156.079 99.6497 156.295L99.0745 154.789C98.8661 154.177 98.6648 153.558 98.4635 152.945L98.0753 151.54C99.063 151.32 100.069 151.192 101.08 151.159H102.597L104.078 151.31L102.518 150.784C100.954 150.296 99.3248 150.053 97.6871 150.064L97.4499 149.178L96.731 146.029C97.6624 146.012 98.5928 146.097 99.5059 146.282L98.0682 145.77L96.6304 145.403C96.0409 142.327 95.7893 140.108 95.7893 140.108C97.8778 140.156 99.9416 140.573 101.885 141.34V142.406L101.986 143.487L102.166 141.441C104.228 142.198 106.22 143.135 108.118 144.243L107.701 145.424L107.37 146.656C107.679 145.936 108.039 145.158 108.434 144.423L109.807 145.28L110.584 145.828C109.635 147.209 108.844 148.693 108.226 150.251C109.153 148.881 110.25 147.635 111.489 146.541C112.502 147.299 113.44 148.15 114.293 149.084L114.164 155.07L114.034 155.135H114.164L114.12 157.195L112.891 157.426H114.113L114.041 160.819L112.891 160.884C112.055 159.112 111.126 157.385 110.109 155.711C107.183 150.87 102.726 145.028 96.6088 141.008L98.3845 142.514C98.8733 142.953 99.4484 143.487 100.081 144.12L100.354 144.373L100.613 144.646L101.231 145.259L102.568 146.699L102.827 146.973L102.992 147.16L103.215 147.42L104.2 148.536L104.631 149.062L104.912 149.386L105.156 149.703L105.638 150.28L106.651 151.591L106.932 151.951L107.004 152.052C107.608 152.859 108.226 153.716 108.83 154.616L108.995 154.84L109.297 155.315L110.124 156.554L110.72 157.541L111.051 158.06L111.252 158.413L111.604 158.996L112.661 160.905C110.203 161.064 107.715 161.129 105.199 161.078C106.167 159.856 107.217 158.7 108.341 157.62C106.892 158.495 105.515 159.483 104.222 160.574L103.69 161.042H102.575L102.123 161.006L102.144 160.905Z" fill="#E3D85C"/>
<path d="M86.0127 120.564C86.9624 119.91 87.9854 119.371 89.0607 118.957C89.7467 120.288 90.2728 121.695 90.6278 123.15C90.5432 121.628 90.3023 120.12 89.909 118.647L90.6278 118.388L91.9146 118.021C92.0369 118.741 92.1375 119.526 92.1878 120.261L92.2381 119.101L92.2022 117.949C93.9523 117.511 95.7415 117.248 97.5434 117.163L97.1768 118.986L97.529 118.078L97.8093 117.156C99.5105 117.029 101.22 117.237 102.841 117.769C102.841 117.769 102.123 119.627 100.879 122.141L99.6425 122.055L98.3988 122.098C99.1601 122.199 99.9077 122.385 100.627 122.653L99.3118 125.203L98.9092 125.923C97.6442 125.46 96.3095 125.216 94.9626 125.203H93.6112L94.8117 125.484L95.9978 125.88C96.7892 126.185 97.5458 126.574 98.2551 127.04L97.6081 128.157L96.6736 129.597L95.854 130.75C95.5593 130.44 95.2574 130.145 94.9411 129.864L93.9634 129.064L94.8045 130.03L95.6168 131.074C94.6419 132.447 93.441 133.643 92.0656 134.611L91.2605 133.134C90.5235 131.838 89.6922 130.598 88.7732 129.424C89.6649 131.289 90.4216 133.215 91.0376 135.188L90.6782 135.353L89.7796 135.649L88.9241 135.821C88.8723 135.19 88.7835 134.562 88.6582 133.941L88.385 132.645L88.5 134.222C88.5 134.77 88.536 135.317 88.5 135.865C87.2738 135.979 86.037 135.86 84.8553 135.512L84.9632 134.431L85.2651 130.339L85.8546 129.727L86.2715 129.316L86.5159 129.064L86.9041 128.704L87.623 127.984L88.5719 127.134L88.9241 126.802L89.1038 126.651C89.8227 126.031 90.4913 125.455 91.167 124.922L91.2461 124.85L91.5552 124.619L92.6695 123.755L93.187 123.388L93.4602 123.179L93.755 122.977L94.2222 122.638L95.2646 121.918L95.5018 121.76L95.6815 121.644L95.9547 121.479L97.3996 120.607L98.0322 120.24L98.3054 120.074L98.5785 119.93C99.2327 119.555 99.815 119.245 100.304 119L102.065 118.179C96.3141 119.995 91.3683 123.849 87.889 127.249C86.9257 128.185 86.0774 129.093 85.3586 129.914L85.8905 122.782L86.0127 120.535V120.564Z" fill="#E3D85C"/>
<path d="M83.4535 150.078C84.8058 149.489 86.2086 149.024 87.6446 148.688V150.546L87.8243 149.588L87.9321 148.63C89.5932 148.188 91.3246 148.075 93.0289 148.299C93.0289 148.299 92.6335 150.265 91.8931 152.96L90.6638 153.104L89.4489 153.377C90.2158 153.331 90.9854 153.374 91.7421 153.507L90.9226 156.259L90.6494 157.023C89.3222 156.792 87.9653 156.792 86.6381 157.023L85.3154 157.304L86.5447 157.354L87.7811 157.527C88.614 157.681 89.4284 157.923 90.2109 158.247L89.794 159.429L86.6741 158.816L82.5981 157.837L82.9503 157.404L83.2091 157.116L84.1508 156.064L84.5894 155.603L84.8194 155.351L85.071 155.099L85.4736 154.674L86.365 153.795L86.5735 153.586L86.7244 153.442L86.9616 153.233L88.1693 152.11L88.7301 151.634L88.9601 151.425L89.2045 151.231C89.7796 150.741 90.2972 150.33 90.7357 149.999L92.31 148.868C88.6036 150.943 85.3248 153.705 82.6484 157.008L83.4823 150.064L83.4535 150.078Z" fill="#E3D85C"/>
<path d="M104.049 91.7916C102.968 91.3558 101.806 91.1544 100.642 91.2009C100.642 91.2009 100.721 92.6417 100.965 94.6587L101.777 94.846L102.568 95.1342C102.056 95.0439 101.534 95.0221 101.015 95.0694L101.303 97.1153L101.418 97.6916C102.329 97.618 103.245 97.7132 104.121 97.9725L104.984 98.2607L104.15 98.2174L103.301 98.2607C102.72 98.317 102.146 98.4378 101.591 98.6209L101.77 99.5286C101.864 99.9248 101.957 100.328 102.058 100.724L102.338 101.697C102.597 101.538 102.856 101.387 103.115 101.257L103.927 100.89L103.172 101.402L102.453 101.963C102.777 103.107 103.295 104.187 103.984 105.155L104.818 104.283C105.575 103.53 106.382 102.83 107.234 102.187C106.25 103.326 105.342 104.529 104.516 105.789L104.718 105.983L105.228 106.365L105.746 106.66C105.925 106.221 106.112 105.803 106.321 105.392L106.781 104.542L106.371 105.623C106.234 105.998 106.105 106.387 105.99 106.768C107.497 107.347 109.154 107.405 110.699 106.934C111.356 105.316 111.81 103.622 112.05 101.891H111.734C111.092 101.835 110.446 101.847 109.807 101.927C110.556 101.681 111.326 101.505 112.108 101.402L112.144 100.89C112.144 100.638 112.144 100.393 112.144 100.17V99.8743L111.324 100.119L110.533 100.422C111.037 100.092 111.569 99.808 112.122 99.5718C112.079 99.0628 111.97 98.5615 111.799 98.0806C111.264 96.8163 110.421 95.7067 109.347 94.8532C108.614 95.6545 107.97 96.5338 107.428 97.4754C107.814 96.432 108.295 95.4264 108.866 94.4714L108.441 94.1401L107.723 93.6286C107.478 94.1257 107.255 94.6371 107.061 95.1414L107.277 94.313L107.55 93.5205C106.519 92.8609 105.42 92.315 104.272 91.8925L104.114 93.2468V92.5264V91.806L104.049 91.7916ZM102.029 92.5984L101.066 91.6763C104.401 94.104 106.745 97.7924 108.255 100.876C109.128 102.66 109.85 104.516 110.411 106.423L109.692 104.643L108.973 102.979L108.794 102.605L108.693 102.381L108.52 102.05L108.211 101.423L107.787 100.638L107.629 100.335L107.543 100.191C107.227 99.6222 106.903 99.0819 106.587 98.5704L106.551 98.5056L106.457 98.2751L105.925 97.4466L105.674 97.0792L105.544 96.8847L105.393 96.683L105.171 96.3516L104.646 95.6313L104.531 95.4728L104.488 95.4223L104.437 95.3503L104.301 95.1846L103.582 94.2913L103.251 93.9023L103.115 93.7366L102.964 93.5782C102.626 93.1819 102.317 92.8578 102.058 92.5768L102.029 92.5984Z" fill="#E3D85C"/>
<path d="M85.3586 129.972V130.361L85.948 129.749L86.365 129.338L86.6094 129.086L86.9976 128.726L87.7164 128.006L88.6654 127.155L89.0176 126.824L89.1973 126.673C89.9162 126.053 90.5847 125.477 91.2605 124.944L91.3395 124.872L91.6487 124.641L92.7629 123.777L93.2805 123.409L93.5537 123.201L93.8484 122.999L94.3157 122.66L95.358 121.94L95.5953 121.781L95.775 121.666L96.0482 121.5L97.3996 120.607L98.0322 120.24L98.3054 120.074L98.5786 119.93C99.2327 119.555 99.815 119.246 100.304 119.001L102.065 118.179C96.3141 119.995 91.3683 123.849 87.889 127.249C86.9257 128.186 86.0775 129.093 85.3586 129.915V129.972Z" fill="#B0AB1E"/>
<path d="M133.357 62.9761V58.6538L156.059 61.8451L159.359 89.1406C151.451 90.6318 144.421 91.9645 139.554 92.7425L133.357 62.9761Z" fill="#D4C548"/>
<path d="M123.351 57.566C133.235 93.0379 135.909 127.163 135.097 158.917C138.788 158.671 142.455 158.146 146.067 157.347C149.007 120.038 144.629 89.8105 140.417 59.6984C134.775 58.6475 129.076 57.9259 123.351 57.5372V57.566Z" fill="#B0AB1E"/>
<path d="M122.495 56.9105L129.066 81.2236C130.733 77.437 133.791 74.4393 137.606 72.8527C137.606 72.8527 132.337 60.4548 131.021 58.6539C129.706 56.8529 124.278 56.608 122.495 56.9105Z" fill="#DFD153"/>
<path d="M135.083 139.38L136.751 137.457L137.807 139.164L137.419 138.184L136.966 137.248C138.26 135.811 139.814 134.633 141.545 133.776C141.545 133.776 142.315 135.8 143.184 138.703L142.113 139.596L141.136 140.605C141.825 140.089 142.571 139.652 143.357 139.301L144.184 142.305L144.371 143.162C142.992 143.79 141.724 144.64 140.618 145.676L139.525 146.75C139.914 146.505 140.309 146.267 140.704 146.029L141.962 145.417C142.829 145.038 143.732 144.75 144.658 144.56L144.96 145.929C145.061 146.541 145.161 147.16 145.269 147.773L145.449 149.307C144.982 149.307 144.514 149.307 144.054 149.307L142.66 149.458L144.097 149.545L145.535 149.725C145.756 151.567 145.663 153.432 145.262 155.243L143.515 154.724C141.949 154.292 140.354 153.977 138.742 153.781C140.842 154.534 142.884 155.439 144.852 156.489L144.687 156.907L144.22 157.75L143.925 157.815L142.796 157.995L141.998 157.375L140.812 156.583L142.077 157.721L142.408 158.06L141.373 158.226L136.564 158.751L136.607 156.266L136.65 155.625V155.236L136.7 154.66L136.765 153.565L136.909 152.16L136.952 151.634L136.988 151.367C137.096 150.345 137.232 149.365 137.383 148.421V148.306L137.462 147.888L137.728 146.346L137.872 145.626L137.944 145.251L138.03 144.862L138.167 144.236L138.49 142.874L138.562 142.564L138.62 142.334L138.72 141.995L139.209 140.223L139.453 139.445L139.547 139.106L139.662 138.782C139.921 137.975 140.165 137.284 140.381 136.715L141.2 134.705C137.85 140.612 136.7 147.449 136.391 152.801C136.281 154.778 136.281 156.76 136.391 158.737L135.119 158.874L135.248 147.268L135.593 147.456L135.248 147.175V146.858L135.097 139.337L135.083 139.38Z" fill="#E3D85C"/>
<path d="M138.39 88.2832C139.251 87.7089 140.237 87.3484 141.265 87.2314C141.265 87.2314 141.531 88.6722 141.775 90.6101L141.1 90.9054L140.467 91.2944C140.902 91.1375 141.357 91.0429 141.819 91.0135L142.034 93.0234V93.5925C141.226 93.6482 140.437 93.8714 139.719 94.248L139.001 94.6514L139.719 94.4929L140.438 94.4065C140.968 94.3819 141.498 94.4182 142.02 94.5145L142.077 95.415V96.6037V97.5834C141.819 97.4609 141.553 97.3601 141.294 97.2664L140.503 97.0359L141.279 97.4105L142.07 97.8571C142.055 98.979 141.848 100.09 141.459 101.142L140.525 100.422C139.694 99.8083 138.825 99.2501 137.922 98.7504C139.052 99.7051 140.122 100.728 141.128 101.812L140.999 102.021L140.632 102.468L140.251 102.821C139.993 102.424 139.734 102.05 139.453 101.682L138.85 100.962L139.461 101.942C139.669 102.288 139.863 102.662 140.057 102.986C138.842 103.764 137.381 104.059 135.96 103.815C135.013 102.359 134.229 100.803 133.623 99.1754L133.897 99.1178C134.451 98.9624 135.024 98.8801 135.6 98.8729C134.89 98.7387 134.167 98.6784 133.444 98.6928L133.293 98.2029C133.235 97.9652 133.178 97.7275 133.113 97.4825L133.07 97.1944L133.839 97.3169L134.608 97.4969C134.099 97.249 133.567 97.0512 133.02 96.9062C132.965 96.4026 132.977 95.8939 133.056 95.3934C133.225 94.1346 133.72 92.9423 134.493 91.9356C135.331 92.6062 136.099 93.3592 136.786 94.1832C136.203 93.2385 135.544 92.3423 134.817 91.5033L135.111 91.1287L135.651 90.5236C135.981 90.9703 136.298 91.4313 136.578 91.8851L136.197 91.1215L135.78 90.4012C136.532 89.6264 137.372 88.9422 138.282 88.3625L138.735 89.6447L138.598 88.9244L138.418 88.2472L138.39 88.2832ZM140.352 88.7803L140.977 87.7501C138.605 90.5668 137.383 94.4497 136.772 97.6338C136.403 99.4981 136.187 101.389 136.125 103.289L136.334 101.473L136.6 99.7662L136.671 99.3844L136.715 99.1538L136.786 98.8081L136.916 98.1597L137.11 97.3385L137.182 97.0287L137.225 96.8774C137.369 96.2795 137.527 95.7176 137.692 95.1773V95.1125L137.771 94.8747L138.052 94.0031L138.188 93.6141L138.26 93.4052L138.339 93.189L138.469 92.836L138.763 92.1157L138.835 91.9428V91.8851V91.8203L138.914 91.633L139.338 90.6677L139.54 90.2571L139.626 90.0698L139.712 89.8969C139.921 89.4718 140.122 89.1045 140.287 88.8091L140.352 88.7803Z" fill="#E3D85C"/>
<path d="M146.915 124.252V123.813C146.03 124.994 145.216 126.228 144.478 127.508L144.802 127.739L145.614 128.207L146.412 128.546L146.973 127.026L146.93 124.252H146.915Z" fill="#E3D85C"/>
<path d="M146.879 123.366L146.7 118.208L146.304 117.725L146.053 117.445L145.14 116.4L144.708 115.939L144.486 115.687L144.234 115.435L143.846 115.017L142.969 114.124L142.767 113.915L142.624 113.771L142.386 113.562L141.2 112.438L140.654 111.962L140.424 111.753L140.187 111.552C139.626 111.062 139.116 110.651 138.691 110.32L137.139 109.182C140.793 111.294 144.019 114.075 146.649 117.38L146.391 113.108V113.173V113.065L146.247 110.745C144.807 110.07 143.307 109.53 141.768 109.131V110.932L141.61 110.003L141.517 109.066C139.883 108.596 138.177 108.434 136.485 108.591C136.485 108.591 136.837 110.507 137.527 113.129L138.749 113.309L139.957 113.612C139.195 113.545 138.428 113.564 137.671 113.67L138.44 116.35L138.691 117.07C140.022 116.889 141.373 116.933 142.688 117.2L144.004 117.509H142.775L141.538 117.639C140.71 117.764 139.896 117.971 139.108 118.259L139.518 119.447C139.719 119.966 139.928 120.485 140.136 121.003L140.704 122.257C141.057 122.026 141.423 121.81 141.775 121.608L142.89 121.061L141.876 121.781L140.877 122.595C141.553 124.104 142.484 125.483 143.63 126.673L144.708 125.448C145.406 124.685 146.148 123.964 146.93 123.287L146.879 123.366Z" fill="#E3D85C"/>
<path d="M7.78534 258.547L5.70062 272.025C8.15197 275.245 11.8326 275.973 16.4837 274.777L20.0277 267.141L7.8069 258.547H7.78534Z" fill="#363440"/>
<path d="M41.8094 258.547L39.7247 272.025C42.1761 275.245 45.8567 275.973 50.5078 274.777L54.0518 267.141L41.831 258.547H41.8094Z" fill="#363440"/>
<path d="M73.5978 191.205L81.8936 200.872L77.4941 205.058L73.8998 200.058L57.2723 255.24C56.7958 256.819 55.8264 258.204 54.5067 259.191C53.187 260.177 51.5864 260.714 49.9399 260.722L10.5674 260.924L15.4341 266.413L11.049 268.79L2.48729 258.921C2.13264 258.596 1.80785 258.239 1.51681 257.855C0.797575 256.887 0.314393 255.764 0.105928 254.576C-0.102537 253.388 -0.0304836 252.167 0.316315 251.011L17.6411 193.503C18.1186 191.924 19.0882 190.54 20.4077 189.554C21.7272 188.567 23.3273 188.03 24.9735 188.021L67.1568 187.812C68.3617 187.805 69.5515 188.082 70.6302 188.62C71.709 189.158 72.6466 189.942 73.3678 190.91L73.5978 191.205Z" fill="#F19E44"/>
<path d="M73.835 191.5L77.5732 195.823L30.3147 195.959C28.9736 195.964 27.6677 196.389 26.5807 197.176C25.4936 197.963 24.6801 199.072 24.2546 200.347L16.0236 224.955C15.9325 225.226 15.7889 225.477 15.601 225.693C15.4132 225.909 15.1848 226.086 14.9288 226.213C14.6728 226.341 14.3942 226.416 14.109 226.436C13.8239 226.456 13.5376 226.419 13.2667 226.327C12.9958 226.236 12.7454 226.092 12.53 225.904C12.3145 225.716 12.1382 225.487 12.011 225.23C11.8839 224.974 11.8084 224.695 11.7888 224.409C11.7693 224.123 11.8062 223.836 11.8973 223.565L20.1283 198.985C20.8469 196.848 22.2148 194.99 24.0402 193.671C25.8656 192.352 28.0571 191.638 30.3075 191.63L73.835 191.5Z" fill="#FFCE80"/>
<path d="M26.9576 203.271C27.3621 201.928 28.1859 200.751 29.3077 199.912C30.4296 199.073 31.7904 198.617 33.1902 198.61L77.7601 198.387C78.7838 198.382 79.7944 198.617 80.7108 199.074C81.6272 199.532 82.4237 200.198 83.0363 201.02C83.6488 201.842 84.0603 202.796 84.2376 203.807C84.415 204.817 84.3533 205.855 84.0574 206.837L66.0353 266.629C65.6321 267.973 64.8089 269.153 63.6869 269.993C62.5649 270.833 61.2034 271.29 59.8027 271.297L15.2328 271.521C14.2088 271.525 13.1981 271.288 12.2818 270.83C11.3655 270.372 10.5692 269.705 9.95682 268.883C9.34443 268.06 8.93303 267.105 8.75566 266.095C8.5783 265.084 8.6399 264.046 8.93553 263.063L26.9576 203.271Z" fill="#FDC458"/>
<path d="M21.6308 244.586C21.9169 243.55 22.5336 242.638 23.3866 241.987C24.2396 241.337 25.2819 240.984 26.3538 240.984H62.0528C62.8057 240.985 63.5483 241.16 64.2228 241.495C64.8974 241.83 65.4859 242.316 65.9426 242.916C66.3993 243.516 66.712 244.213 66.8565 244.954C67.001 245.694 66.9734 246.458 66.7758 247.186C65.7191 251.062 64.3964 255.91 63.5121 259.166C63.2272 260.202 62.6107 261.115 61.7575 261.766C60.9042 262.417 59.8614 262.769 58.7892 262.768H23.0686C22.315 262.771 21.571 262.599 20.8948 262.265C20.2187 261.932 19.6288 261.446 19.1713 260.846C18.7138 260.246 18.4012 259.548 18.258 258.807C18.1147 258.065 18.1447 257.301 18.3456 256.573C19.4023 252.697 20.725 247.849 21.6092 244.593L21.6308 244.586Z" fill="#F19E44"/>
<path d="M32.4138 205.101C32.5812 204.556 32.9185 204.078 33.3765 203.738C33.8344 203.399 34.3889 203.215 34.9586 203.214H73.9069C74.3258 203.215 74.7385 203.315 75.1118 203.505C75.4852 203.695 75.8087 203.971 76.0563 204.31C76.3039 204.648 76.4686 205.04 76.5373 205.454C76.606 205.868 76.5767 206.293 76.4517 206.693C75.8191 208.703 75.0499 211.153 74.5324 212.809C74.3612 213.351 74.0222 213.824 73.5646 214.16C73.107 214.495 72.5545 214.676 71.9875 214.675L33.0608 214.733C32.6424 214.734 32.2298 214.636 31.8562 214.447C31.4825 214.259 31.1584 213.985 30.91 213.647C30.6616 213.31 30.4958 212.919 30.4261 212.506C30.3564 212.092 30.3848 211.668 30.5088 211.268C31.1342 209.243 31.8962 206.765 32.4138 205.101Z" fill="#F19E44"/>
<path d="M37.9347 208.22L50.6012 169.442C50.7702 168.972 51.0842 168.567 51.4978 168.287C51.9114 168.008 52.403 167.867 52.9016 167.886L79.0756 168.225C79.4349 168.225 79.7897 168.305 80.1142 168.459C80.4387 168.614 80.7248 168.839 80.9519 169.118C81.1649 169.383 81.3082 169.697 81.3685 170.032C81.4288 170.367 81.4042 170.711 81.2969 171.034L68.803 209.337C68.5841 209.906 68.1586 210.37 67.6118 210.638C67.0651 210.905 66.4377 210.955 65.8556 210.778C65.5688 210.712 65.2983 210.588 65.061 210.414C64.8237 210.239 64.6245 210.018 64.4756 209.764C64.3268 209.509 64.2315 209.227 64.1956 208.935C64.1597 208.642 64.184 208.345 64.2669 208.062L75.8551 172.525L54.6125 172.251L42.478 209.481C42.2591 210.05 41.8336 210.515 41.2868 210.782C40.7401 211.049 40.1127 211.099 39.5306 210.922C39.2429 210.856 38.9717 210.732 38.7338 210.557C38.4959 210.382 38.2963 210.161 38.1474 209.905C37.9985 209.65 37.9034 209.367 37.8681 209.073C37.8327 208.78 37.8579 208.482 37.9419 208.199L37.9347 208.22Z" fill="#C7E3F4"/>
<path d="M67.9188 157.844C67.9188 157.844 56.1437 158.362 54.8353 163.794C54.4375 165.151 54.1679 166.543 54.0302 167.951L61.9378 168.052C61.9378 168.052 58.2787 178.072 60.5 178.548C62.7213 179.023 68.0841 170.818 68.0841 170.818C68.0841 170.818 73.3893 170.242 74.9062 167.749C76.6243 164.911 76.653 159.357 76.653 159.357L67.8612 157.844H67.9188Z" fill="#FDA092"/>
<path d="M77.8032 101.531L65.5825 158.643L76.538 160.754L93.6543 109.081L77.8032 101.531Z" fill="#FDA092"/>
<path d="M75.8694 110.572C80.0245 113.533 85.4735 114.549 92.0655 113.857L93.6543 109.052L77.8032 101.531L75.8694 110.572Z" fill="#EF7D78"/>
<path d="M97.4715 82.9885C97.0474 73.782 92.2885 62.9762 92.2885 62.9762C81.6204 68.1486 78.2345 78.6158 73.5978 101.495C79.919 106.702 87.1968 110.618 95.0202 113.021C95.0202 113.021 98.2767 100.681 97.4787 83.0101L97.4715 82.9885Z" fill="#D4C548"/>
</g>
<defs>
<clipPath id="clip0_1_1502">
<rect width="177" height="291" fill="white"/>
</clipPath>
</defs>
</svg>
