<svg width="20" height="21" viewBox="0 0 20 21" fill="none" xmlns="http://www.w3.org/2000/svg">
<g id="eye 1">
<g id="Group">
<path id="Vector" d="M12.9833 10.5C12.9833 12.15 11.6499 13.4833 9.99993 13.4833C8.34993 13.4833 7.0166 12.15 7.0166 10.5C7.0166 8.85 8.34993 7.51666 9.99993 7.51666C11.6499 7.51666 12.9833 8.85 12.9833 10.5Z" stroke="#4F4F4F" stroke-width="1.5" stroke-linecap="round" stroke-linejoin="round"/>
<path id="Vector_2" d="M9.99999 17.3917C12.9417 17.3917 15.6833 15.6583 17.5917 12.6583C18.3417 11.4833 18.3417 9.50834 17.5917 8.33334C15.6833 5.33334 12.9417 3.60001 9.99999 3.60001C7.05833 3.60001 4.31666 5.33334 2.40833 8.33334C1.65833 9.50834 1.65833 11.4833 2.40833 12.6583C4.31666 15.6583 7.05833 17.3917 9.99999 17.3917Z" stroke="#4F4F4F" stroke-width="1.5" stroke-linecap="round" stroke-linejoin="round"/>
</g>
</g>
</svg>
